<svg width="624" height="166" viewBox="0 0 624 166" fill="none" xmlns="http://www.w3.org/2000/svg">
<path d="M449.021 166C421.812 166 395.186 160.896 369.912 150.811L223.197 92.2753C207.804 86.1333 191.579 83.0208 175 83.0208C140.323 83.0208 107.727 96.4875 83.2225 120.952L71.0119 133.132C54.7658 149.338 28.4308 149.338 12.1846 133.132C-4.06154 116.926 -4.06154 90.6568 12.1846 74.451L24.3952 62.2708C44.2817 42.4338 67.5172 26.9335 93.4986 16.2057C119.438 5.4365 146.876 0 174.979 0C203.082 0 228.814 5.1045 254.088 15.189L400.803 73.7247C416.196 79.8668 432.421 82.9793 449 82.9793C483.677 82.9793 516.273 69.5125 540.777 45.0482L552.988 32.868C569.234 16.6623 595.569 16.6623 611.815 32.868C628.062 49.0737 628.062 75.3432 611.815 91.549L599.605 103.729C579.718 123.566 556.483 139.067 530.501 149.794C504.52 160.522 477.103 165.959 448.979 165.959L449.021 166Z" fill="black"/>
</svg>
